#tb 0: 1/25
0,          0,          0,        1,   152064, 0x9989b588
0,          1,          1,        1,   152064, 0x7cbf85d4
0,          2,          2,        1,   152064, 0x72615cf1
0,          3,          3,        1,   152064, 0xcf98053c
0,          4,          4,        1,   152064, 0x42daddb0
0,          5,          5,        1,   152064, 0x460ca616
0,          6,          6,        1,   152064, 0x54cc5ab1
0,          7,          7,        1,   152064, 0xd146396e
0,          8,          8,        1,   152064, 0xefbbffc3
0,          9,          9,        1,   152064, 0x41ecd870
0,         10,         10,        1,   152064, 0x57bba322
0,         11,         11,        1,   152064, 0x7e7270f8
0,         12,         12,        1,   152064, 0x1f5d1f0e
0,         13,         13,        1,   152064, 0x5478eb60
0,         14,         14,        1,   152064, 0xd9abb62a
0,         15,         15,        1,   152064, 0x97997f6d
0,         16,         16,        1,   152064, 0xfc405569
0,         17,         17,        1,   152064, 0x4e49329b
0,         18,         18,        1,   152064, 0x6b98f9c6
0,         19,         19,        1,   152064, 0xa872cf59
0,         20,         20,        1,   152064, 0x478a897d
0,         21,         21,        1,   152064, 0xf6744e5d
0,         22,         22,        1,   152064, 0x7ddf110d
0,         23,         23,        1,   152064, 0xe6bde4be
0,         24,         24,        1,   152064, 0x5c3ba029
0,         25,         25,        1,   152064, 0x07759146
0,         26,         26,        1,   152064, 0x4beb510f
0,         27,         27,        1,   152064, 0x5b063ad9
0,         28,         28,        1,   152064, 0xc2930366
0,         29,         29,        1,   152064, 0x5435e658
